<mxfile host="app.diagrams.net" modified="2021-01-06T07:49:07.842Z" agent="5.0 (Windows)" etag="GgX7JKGQfHd8wJnX34ts" version="14.1.8" type="github">
  <diagram id="fX69xaF8_KSX55q6HCL3" name="Page-1">
    <mxGraphModel dx="942" dy="593" grid="1" gridSize="10" guides="1" tooltips="1" connect="1" arrows="1" fold="1" page="1" pageScale="1" pageWidth="1100" pageHeight="850" math="0" shadow="0">
      <root>
        <mxCell id="0" />
        <mxCell id="1" parent="0" />
        <mxCell id="6deW7tsNIbcMf1ReAwM--1" value="" style="endArrow=classic;html=1;entryX=0;entryY=0.5;entryDx=0;entryDy=0;" parent="1" source="ap_7rQkNiHjJm3ABQdG6-43" target="i8B-PwrzWvCDXHrhOCOJ-4" edge="1">
          <mxGeometry width="50" height="50" relative="1" as="geometry">
            <mxPoint x="520" y="680" as="sourcePoint" />
            <mxPoint x="570" y="630" as="targetPoint" />
            <Array as="points">
              <mxPoint x="160" y="760" />
              <mxPoint x="160" y="180" />
            </Array>
          </mxGeometry>
        </mxCell>
        <mxCell id="BKchy7q1Tg_gFpRPUmwn-21" value="" style="endArrow=none;html=1;endFill=0;fillColor=#d5e8d4;strokeColor=#82b366;" edge="1" parent="1" source="BKchy7q1Tg_gFpRPUmwn-7" target="BKchy7q1Tg_gFpRPUmwn-20">
          <mxGeometry width="50" height="50" relative="1" as="geometry">
            <mxPoint x="880" y="280" as="sourcePoint" />
            <mxPoint x="880" y="190" as="targetPoint" />
          </mxGeometry>
        </mxCell>
        <mxCell id="i8B-PwrzWvCDXHrhOCOJ-29" value="" style="endArrow=classic;html=1;elbow=vertical;fillColor=#d5e8d4;strokeColor=#82b366;" parent="1" source="ap_7rQkNiHjJm3ABQdG6-25" target="i8B-PwrzWvCDXHrhOCOJ-28" edge="1">
          <mxGeometry width="50" height="50" relative="1" as="geometry">
            <mxPoint x="390" y="430" as="sourcePoint" />
            <mxPoint x="510" y="180" as="targetPoint" />
            <Array as="points">
              <mxPoint x="485" y="425" />
            </Array>
          </mxGeometry>
        </mxCell>
        <mxCell id="i8B-PwrzWvCDXHrhOCOJ-38" value="" style="endArrow=none;html=1;fillColor=#d5e8d4;strokeColor=#82b366;" parent="1" source="i8B-PwrzWvCDXHrhOCOJ-28" target="i8B-PwrzWvCDXHrhOCOJ-36" edge="1">
          <mxGeometry width="50" height="50" relative="1" as="geometry">
            <mxPoint x="393.2142857142858" y="319.2142857142858" as="sourcePoint" />
            <mxPoint x="400" y="380" as="targetPoint" />
          </mxGeometry>
        </mxCell>
        <mxCell id="i8B-PwrzWvCDXHrhOCOJ-12" value="" style="endArrow=classic;html=1;elbow=vertical;fillColor=#f8cecc;strokeColor=#b85450;" parent="1" source="i8B-PwrzWvCDXHrhOCOJ-31" edge="1" target="i8B-PwrzWvCDXHrhOCOJ-6">
          <mxGeometry width="50" height="50" relative="1" as="geometry">
            <mxPoint x="250" y="340" as="sourcePoint" />
            <mxPoint x="500" y="180" as="targetPoint" />
            <Array as="points">
              <mxPoint x="485" y="180" />
            </Array>
          </mxGeometry>
        </mxCell>
        <mxCell id="i8B-PwrzWvCDXHrhOCOJ-3" value="" style="edgeStyle=orthogonalEdgeStyle;rounded=0;orthogonalLoop=1;jettySize=auto;html=1;" parent="1" source="i8B-PwrzWvCDXHrhOCOJ-1" target="i8B-PwrzWvCDXHrhOCOJ-2" edge="1">
          <mxGeometry relative="1" as="geometry" />
        </mxCell>
        <mxCell id="i8B-PwrzWvCDXHrhOCOJ-1" value="&lt;font style=&quot;font-size: 27px&quot;&gt;Start&lt;/font&gt;" style="rounded=1;whiteSpace=wrap;html=1;fillColor=#d5e8d4;strokeColor=#82b366;" parent="1" vertex="1">
          <mxGeometry x="160" y="60" width="120" height="60" as="geometry" />
        </mxCell>
        <mxCell id="i8B-PwrzWvCDXHrhOCOJ-5" value="" style="edgeStyle=orthogonalEdgeStyle;orthogonalLoop=1;jettySize=auto;html=1;rounded=1;" parent="1" source="i8B-PwrzWvCDXHrhOCOJ-2" target="i8B-PwrzWvCDXHrhOCOJ-4" edge="1">
          <mxGeometry relative="1" as="geometry">
            <mxPoint x="356" y="190" as="sourcePoint" />
          </mxGeometry>
        </mxCell>
        <mxCell id="i8B-PwrzWvCDXHrhOCOJ-2" value="&lt;font style=&quot;font-size: 32px&quot;&gt;Log in&lt;br&gt;&lt;/font&gt;" style="whiteSpace=wrap;html=1;rounded=1;" parent="1" vertex="1">
          <mxGeometry x="320" y="60" width="120" height="60" as="geometry" />
        </mxCell>
        <mxCell id="i8B-PwrzWvCDXHrhOCOJ-7" value="" style="edgeStyle=orthogonalEdgeStyle;rounded=0;orthogonalLoop=1;jettySize=auto;html=1;" parent="1" source="i8B-PwrzWvCDXHrhOCOJ-4" target="i8B-PwrzWvCDXHrhOCOJ-6" edge="1">
          <mxGeometry relative="1" as="geometry" />
        </mxCell>
        <mxCell id="i8B-PwrzWvCDXHrhOCOJ-4" value="&lt;font style=&quot;font-size: 25px&quot;&gt;Scan &lt;span style=&quot;background-color: rgb(255 , 255 , 51)&quot;&gt;tote&lt;/span&gt;&lt;br&gt;&lt;/font&gt;" style="whiteSpace=wrap;html=1;rounded=1;" parent="1" vertex="1">
          <mxGeometry x="320" y="150" width="120" height="60" as="geometry" />
        </mxCell>
        <mxCell id="i8B-PwrzWvCDXHrhOCOJ-9" value="" style="edgeStyle=orthogonalEdgeStyle;rounded=1;orthogonalLoop=1;jettySize=auto;html=1;" parent="1" source="i8B-PwrzWvCDXHrhOCOJ-6" target="i8B-PwrzWvCDXHrhOCOJ-8" edge="1">
          <mxGeometry relative="1" as="geometry" />
        </mxCell>
        <mxCell id="i8B-PwrzWvCDXHrhOCOJ-6" value="Grab an item from the &lt;span style=&quot;background-color: rgb(255 , 255 , 51)&quot;&gt;tote&lt;/span&gt;" style="whiteSpace=wrap;html=1;rounded=1;" parent="1" vertex="1">
          <mxGeometry x="540" y="150" width="120" height="60" as="geometry" />
        </mxCell>
        <mxCell id="i8B-PwrzWvCDXHrhOCOJ-11" value="" style="edgeStyle=orthogonalEdgeStyle;rounded=1;orthogonalLoop=1;jettySize=auto;html=1;" parent="1" source="i8B-PwrzWvCDXHrhOCOJ-8" target="i8B-PwrzWvCDXHrhOCOJ-10" edge="1">
          <mxGeometry relative="1" as="geometry" />
        </mxCell>
        <mxCell id="i8B-PwrzWvCDXHrhOCOJ-8" value="Scan the item" style="whiteSpace=wrap;html=1;rounded=1;" parent="1" vertex="1">
          <mxGeometry x="540" y="295" width="120" height="60" as="geometry" />
        </mxCell>
        <mxCell id="i8B-PwrzWvCDXHrhOCOJ-25" style="edgeStyle=elbowEdgeStyle;rounded=1;orthogonalLoop=1;jettySize=auto;elbow=vertical;html=1;startArrow=none;startFill=0;endArrow=classic;endFill=1;fillColor=#d5e8d4;strokeColor=#82b366;" parent="1" source="ap_7rQkNiHjJm3ABQdG6-14" target="i8B-PwrzWvCDXHrhOCOJ-27" edge="1">
          <mxGeometry relative="1" as="geometry">
            <mxPoint x="805" y="370.72" as="targetPoint" />
            <Array as="points">
              <mxPoint x="960" y="450" />
              <mxPoint x="870" y="420" />
              <mxPoint x="860" y="405" />
              <mxPoint x="970" y="365" />
              <mxPoint x="850" y="405" />
              <mxPoint x="890" y="365" />
              <mxPoint x="952" y="365" />
              <mxPoint x="830" y="395" />
              <mxPoint x="880" y="410" />
              <mxPoint x="855" y="495" />
            </Array>
          </mxGeometry>
        </mxCell>
        <mxCell id="i8B-PwrzWvCDXHrhOCOJ-10" value="&lt;div&gt;Place item in &lt;span style=&quot;background-color: rgb(204 , 204 , 204)&quot;&gt;tray&lt;/span&gt;&lt;/div&gt;" style="whiteSpace=wrap;html=1;rounded=1;" parent="1" vertex="1">
          <mxGeometry x="540" y="395" width="120" height="60" as="geometry" />
        </mxCell>
        <mxCell id="i8B-PwrzWvCDXHrhOCOJ-19" value="" style="edgeStyle=elbowEdgeStyle;rounded=1;orthogonalLoop=1;jettySize=auto;html=1;endArrow=classic;endFill=1;startArrow=none;startFill=0;fillColor=#f8cecc;strokeColor=#b85450;elbow=vertical;" parent="1" source="ap_7rQkNiHjJm3ABQdG6-34" target="i8B-PwrzWvCDXHrhOCOJ-18" edge="1">
          <mxGeometry relative="1" as="geometry">
            <Array as="points">
              <mxPoint x="340" y="535" />
              <mxPoint x="340" y="595" />
              <mxPoint x="299" y="600" />
              <mxPoint x="350" y="535" />
              <mxPoint x="360" y="535" />
            </Array>
          </mxGeometry>
        </mxCell>
        <mxCell id="i8B-PwrzWvCDXHrhOCOJ-13" value="&lt;div&gt;Is the &lt;span style=&quot;background-color: rgb(255 , 255 , 51)&quot;&gt;tote&lt;/span&gt;&lt;br&gt;&lt;/div&gt;&lt;div&gt;physically&lt;/div&gt;&lt;div&gt;empty?&lt;/div&gt;" style="rhombus;whiteSpace=wrap;html=1;fillColor=#dae8fc;strokeColor=#6c8ebf;" parent="1" vertex="1">
          <mxGeometry x="430" y="462" width="110" height="80" as="geometry" />
        </mxCell>
        <mxCell id="i8B-PwrzWvCDXHrhOCOJ-17" value="" style="endArrow=none;html=1;endFill=0;fillColor=#f8cecc;strokeColor=#b85450;edgeStyle=elbowEdgeStyle;" parent="1" source="i8B-PwrzWvCDXHrhOCOJ-13" target="i8B-PwrzWvCDXHrhOCOJ-15" edge="1">
          <mxGeometry width="50" height="50" relative="1" as="geometry">
            <mxPoint x="465" y="550" as="sourcePoint" />
            <mxPoint x="485" y="585" as="targetPoint" />
          </mxGeometry>
        </mxCell>
        <mxCell id="i8B-PwrzWvCDXHrhOCOJ-18" value="Drop the empty &lt;span style=&quot;background-color: rgb(255 , 255 , 51)&quot;&gt;tote&lt;/span&gt; on the &lt;span style=&quot;background-color: rgb(255 , 255 , 51)&quot;&gt;tote &lt;/span&gt;return line" style="whiteSpace=wrap;html=1;rounded=1;" parent="1" vertex="1">
          <mxGeometry x="190" y="505" width="120" height="60" as="geometry" />
        </mxCell>
        <mxCell id="i8B-PwrzWvCDXHrhOCOJ-20" value="&lt;div&gt;Yes&lt;/div&gt;" style="text;html=1;strokeColor=#82b366;fillColor=#d5e8d4;align=center;verticalAlign=middle;whiteSpace=wrap;rounded=0;" parent="1" vertex="1">
          <mxGeometry x="465" y="560" width="40" height="20" as="geometry" />
        </mxCell>
        <mxCell id="i8B-PwrzWvCDXHrhOCOJ-21" value="" style="edgeStyle=none;rounded=0;orthogonalLoop=1;jettySize=auto;html=1;endArrow=none;endFill=0;fillColor=#d5e8d4;strokeColor=#82b366;" parent="1" source="i8B-PwrzWvCDXHrhOCOJ-13" target="i8B-PwrzWvCDXHrhOCOJ-20" edge="1">
          <mxGeometry relative="1" as="geometry">
            <mxPoint x="560" y="630" as="sourcePoint" />
            <mxPoint x="560" y="690" as="targetPoint" />
          </mxGeometry>
        </mxCell>
        <mxCell id="i8B-PwrzWvCDXHrhOCOJ-22" value="" style="endArrow=async;html=1;edgeStyle=elbowEdgeStyle;endFill=1;" parent="1" source="i8B-PwrzWvCDXHrhOCOJ-18" edge="1">
          <mxGeometry width="50" height="50" relative="1" as="geometry">
            <mxPoint x="210" y="530" as="sourcePoint" />
            <mxPoint x="160" y="450" as="targetPoint" />
            <Array as="points">
              <mxPoint x="160" y="240" />
              <mxPoint x="230" y="190" />
            </Array>
          </mxGeometry>
        </mxCell>
        <mxCell id="ap_7rQkNiHjJm3ABQdG6-3" value="" style="edgeStyle=elbowEdgeStyle;rounded=1;orthogonalLoop=1;jettySize=auto;elbow=vertical;html=1;startArrow=none;startFill=0;endArrow=classic;endFill=1;fillColor=#d5e8d4;strokeColor=#82b366;" parent="1" source="ap_7rQkNiHjJm3ABQdG6-4" target="ap_7rQkNiHjJm3ABQdG6-2" edge="1">
          <mxGeometry relative="1" as="geometry">
            <Array as="points">
              <mxPoint x="960" y="250" />
              <mxPoint x="1080" y="390" />
              <mxPoint x="1005" y="585" />
              <mxPoint x="1065" y="510" />
            </Array>
          </mxGeometry>
        </mxCell>
        <mxCell id="i8B-PwrzWvCDXHrhOCOJ-28" value="&lt;div align=&quot;center&quot;&gt;Is the blue&lt;/div&gt;&lt;div align=&quot;center&quot;&gt;light on?&lt;/div&gt;" style="rhombus;whiteSpace=wrap;html=1;rounded=0;fillColor=#dae8fc;strokeColor=#6c8ebf;align=center;" parent="1" vertex="1">
          <mxGeometry x="440" y="280" width="90" height="90" as="geometry" />
        </mxCell>
        <mxCell id="i8B-PwrzWvCDXHrhOCOJ-31" value="No" style="text;html=1;strokeColor=#b85450;fillColor=#f8cecc;align=center;verticalAlign=middle;whiteSpace=wrap;rounded=0;" parent="1" vertex="1">
          <mxGeometry x="465" y="240" width="40" height="20" as="geometry" />
        </mxCell>
        <mxCell id="i8B-PwrzWvCDXHrhOCOJ-32" value="" style="endArrow=none;html=1;elbow=vertical;fillColor=#f8cecc;strokeColor=#b85450;endFill=0;" parent="1" source="i8B-PwrzWvCDXHrhOCOJ-28" target="i8B-PwrzWvCDXHrhOCOJ-31" edge="1">
          <mxGeometry width="50" height="50" relative="1" as="geometry">
            <mxPoint x="450" y="290" as="sourcePoint" />
            <mxPoint x="510" y="180" as="targetPoint" />
            <Array as="points" />
          </mxGeometry>
        </mxCell>
        <mxCell id="i8B-PwrzWvCDXHrhOCOJ-35" value="" style="edgeStyle=elbowEdgeStyle;rounded=1;orthogonalLoop=1;jettySize=auto;elbow=vertical;html=1;startArrow=none;startFill=0;endArrow=async;endFill=1;" parent="1" source="i8B-PwrzWvCDXHrhOCOJ-33" edge="1">
          <mxGeometry relative="1" as="geometry">
            <mxPoint x="160" y="290" as="targetPoint" />
            <Array as="points">
              <mxPoint x="150" y="325" />
            </Array>
          </mxGeometry>
        </mxCell>
        <mxCell id="i8B-PwrzWvCDXHrhOCOJ-33" value="Switch sides" style="rounded=1;whiteSpace=wrap;html=1;" parent="1" vertex="1">
          <mxGeometry x="240" y="310" width="80" height="30" as="geometry" />
        </mxCell>
        <mxCell id="i8B-PwrzWvCDXHrhOCOJ-34" value="" style="endArrow=classic;html=1;fillColor=#d5e8d4;strokeColor=#82b366;endFill=1;" parent="1" source="i8B-PwrzWvCDXHrhOCOJ-36" target="i8B-PwrzWvCDXHrhOCOJ-33" edge="1">
          <mxGeometry width="50" height="50" relative="1" as="geometry">
            <mxPoint x="270" y="371" as="sourcePoint" />
            <mxPoint x="320" y="321" as="targetPoint" />
          </mxGeometry>
        </mxCell>
        <mxCell id="i8B-PwrzWvCDXHrhOCOJ-36" value="&lt;div&gt;Yes&lt;/div&gt;" style="text;html=1;align=center;verticalAlign=middle;resizable=0;points=[];autosize=1;fillColor=#d5e8d4;strokeColor=#82b366;" parent="1" vertex="1">
          <mxGeometry x="385" y="315" width="40" height="20" as="geometry" />
        </mxCell>
        <mxCell id="ap_7rQkNiHjJm3ABQdG6-20" value="" style="edgeStyle=elbowEdgeStyle;rounded=1;orthogonalLoop=1;jettySize=auto;html=1;startArrow=none;startFill=0;endArrow=none;endFill=0;" parent="1" source="ap_7rQkNiHjJm3ABQdG6-2" target="ap_7rQkNiHjJm3ABQdG6-18" edge="1">
          <mxGeometry relative="1" as="geometry">
            <Array as="points">
              <mxPoint x="960" y="180" />
              <mxPoint x="990" y="250" />
              <mxPoint x="1060" y="350" />
              <mxPoint x="970" y="360" />
            </Array>
          </mxGeometry>
        </mxCell>
        <mxCell id="ap_7rQkNiHjJm3ABQdG6-2" value="&lt;div&gt;&lt;font face=&quot;Verdana&quot;&gt;Move whatever is blocking&lt;/font&gt;&lt;/div&gt;&lt;div&gt;&lt;font face=&quot;Verdana&quot;&gt;the light wall&lt;/font&gt;&lt;/div&gt;" style="whiteSpace=wrap;html=1;rounded=1;" parent="1" vertex="1">
          <mxGeometry x="900" y="150" width="120" height="60" as="geometry" />
        </mxCell>
        <mxCell id="ap_7rQkNiHjJm3ABQdG6-6" value="" style="edgeStyle=elbowEdgeStyle;rounded=1;orthogonalLoop=1;jettySize=auto;elbow=vertical;html=1;startArrow=none;startFill=0;endArrow=none;endFill=0;fillColor=#d5e8d4;strokeColor=#82b366;" parent="1" source="ap_7rQkNiHjJm3ABQdG6-4" target="i8B-PwrzWvCDXHrhOCOJ-27" edge="1">
          <mxGeometry relative="1" as="geometry">
            <Array as="points">
              <mxPoint x="950" y="350" />
            </Array>
          </mxGeometry>
        </mxCell>
        <mxCell id="ap_7rQkNiHjJm3ABQdG6-4" value="&lt;div&gt;Yes&lt;br&gt;&lt;/div&gt;" style="text;html=1;align=center;verticalAlign=middle;resizable=0;points=[];autosize=1;fillColor=#d5e8d4;strokeColor=#82b366;" parent="1" vertex="1">
          <mxGeometry x="940" y="250" width="40" height="20" as="geometry" />
        </mxCell>
        <mxCell id="ap_7rQkNiHjJm3ABQdG6-7" value="" style="endArrow=classic;html=1;edgeStyle=elbowEdgeStyle;fillColor=#d5e8d4;strokeColor=#82b366;" parent="1" source="ap_7rQkNiHjJm3ABQdG6-21" target="i8B-PwrzWvCDXHrhOCOJ-6" edge="1">
          <mxGeometry width="50" height="50" relative="1" as="geometry">
            <mxPoint x="845" y="345" as="sourcePoint" />
            <mxPoint x="895" y="295" as="targetPoint" />
            <Array as="points">
              <mxPoint x="875" y="180" />
              <mxPoint x="605" y="70" />
              <mxPoint x="605" y="90" />
              <mxPoint x="785" y="180" />
              <mxPoint x="965" y="230" />
              <mxPoint x="945" y="250" />
            </Array>
          </mxGeometry>
        </mxCell>
        <mxCell id="ap_7rQkNiHjJm3ABQdG6-9" value="" style="endArrow=classic;html=1;edgeStyle=elbowEdgeStyle;fillColor=#f8cecc;strokeColor=#b85450;" parent="1" source="ap_7rQkNiHjJm3ABQdG6-10" target="i8B-PwrzWvCDXHrhOCOJ-8" edge="1">
          <mxGeometry width="50" height="50" relative="1" as="geometry">
            <mxPoint x="635" y="480" as="sourcePoint" />
            <mxPoint x="685" y="430" as="targetPoint" />
            <Array as="points">
              <mxPoint x="625" y="295" />
              <mxPoint x="675" y="360" />
              <mxPoint x="665" y="335" />
              <mxPoint x="625" y="370" />
              <mxPoint x="805" y="320" />
              <mxPoint x="775" y="276" />
              <mxPoint x="850" y="320" />
              <mxPoint x="835" y="276" />
              <mxPoint x="735" y="276" />
              <mxPoint x="855" y="350" />
              <mxPoint x="865" y="330" />
            </Array>
          </mxGeometry>
        </mxCell>
        <mxCell id="ap_7rQkNiHjJm3ABQdG6-12" value="" style="endArrow=none;html=1;edgeStyle=elbowEdgeStyle;endFill=0;fillColor=#f8cecc;strokeColor=#b85450;" parent="1" source="ap_7rQkNiHjJm3ABQdG6-8" target="ap_7rQkNiHjJm3ABQdG6-10" edge="1">
          <mxGeometry width="50" height="50" relative="1" as="geometry">
            <mxPoint x="845" y="365.72" as="sourcePoint" />
            <mxPoint x="905" y="425.72" as="targetPoint" />
            <Array as="points">
              <mxPoint x="733" y="350" />
              <mxPoint x="710" y="330" />
              <mxPoint x="685" y="320" />
              <mxPoint x="665" y="375" />
              <mxPoint x="635" y="400" />
              <mxPoint x="655" y="415" />
              <mxPoint x="870" y="315.72" />
              <mxPoint x="835" y="365.72" />
              <mxPoint x="845" y="435.72" />
              <mxPoint x="905" y="365.72" />
              <mxPoint x="875" y="225.72000000000003" />
            </Array>
          </mxGeometry>
        </mxCell>
        <mxCell id="ap_7rQkNiHjJm3ABQdG6-10" value="No" style="text;html=1;strokeColor=#b85450;fillColor=#f8cecc;align=center;verticalAlign=middle;whiteSpace=wrap;rounded=0;" parent="1" vertex="1">
          <mxGeometry x="713.46" y="310" width="40" height="20" as="geometry" />
        </mxCell>
        <mxCell id="ap_7rQkNiHjJm3ABQdG6-8" value="&lt;div&gt;Did the&lt;/div&gt;&lt;div&gt;item scan?&lt;/div&gt;" style="rhombus;whiteSpace=wrap;html=1;rounded=0;fillColor=#dae8fc;strokeColor=#6c8ebf;" parent="1" vertex="1">
          <mxGeometry x="688.46" y="375" width="90" height="80" as="geometry" />
        </mxCell>
        <mxCell id="ap_7rQkNiHjJm3ABQdG6-13" style="edgeStyle=elbowEdgeStyle;rounded=1;orthogonalLoop=1;jettySize=auto;elbow=vertical;html=1;startArrow=none;startFill=0;endArrow=classic;endFill=1;" parent="1" source="i8B-PwrzWvCDXHrhOCOJ-24" target="ap_7rQkNiHjJm3ABQdG6-8" edge="1">
          <mxGeometry relative="1" as="geometry">
            <mxPoint x="760" y="480" as="targetPoint" />
            <mxPoint x="760" y="305" as="sourcePoint" />
            <Array as="points">
              <mxPoint x="730" y="425" />
              <mxPoint x="765" y="417" />
            </Array>
          </mxGeometry>
        </mxCell>
        <mxCell id="BKchy7q1Tg_gFpRPUmwn-31" style="edgeStyle=elbowEdgeStyle;rounded=1;orthogonalLoop=1;jettySize=auto;html=1;entryX=1;entryY=0.5;entryDx=0;entryDy=0;endArrow=none;endFill=0;fillColor=#d5e8d4;strokeColor=#82b366;" edge="1" parent="1" source="ap_7rQkNiHjJm3ABQdG6-14" target="ap_7rQkNiHjJm3ABQdG6-8">
          <mxGeometry relative="1" as="geometry" />
        </mxCell>
        <mxCell id="ap_7rQkNiHjJm3ABQdG6-14" value="Yes" style="text;html=1;align=center;verticalAlign=middle;resizable=0;points=[];autosize=1;fillColor=#d5e8d4;strokeColor=#82b366;" parent="1" vertex="1">
          <mxGeometry x="820" y="405" width="40" height="20" as="geometry" />
        </mxCell>
        <mxCell id="i8B-PwrzWvCDXHrhOCOJ-15" value="No" style="text;html=1;strokeColor=#b85450;fillColor=#f8cecc;align=center;verticalAlign=middle;whiteSpace=wrap;rounded=0;" parent="1" vertex="1">
          <mxGeometry x="350" y="492" width="40" height="20" as="geometry" />
        </mxCell>
        <mxCell id="ap_7rQkNiHjJm3ABQdG6-18" value="&lt;div&gt;Did the tray&lt;/div&gt;&lt;div&gt;move?&lt;br&gt;&lt;/div&gt;" style="rhombus;whiteSpace=wrap;html=1;rounded=0;fillColor=#dae8fc;strokeColor=#6c8ebf;align=center;" parent="1" vertex="1">
          <mxGeometry x="780" y="135" width="90" height="90" as="geometry" />
        </mxCell>
        <mxCell id="ap_7rQkNiHjJm3ABQdG6-21" value="&lt;div&gt;Yes&lt;/div&gt;" style="text;html=1;align=center;verticalAlign=middle;resizable=0;points=[];autosize=1;fillColor=#d5e8d4;strokeColor=#82b366;" parent="1" vertex="1">
          <mxGeometry x="700" y="170" width="40" height="20" as="geometry" />
        </mxCell>
        <mxCell id="ap_7rQkNiHjJm3ABQdG6-22" value="" style="endArrow=none;html=1;edgeStyle=elbowEdgeStyle;fillColor=#d5e8d4;strokeColor=#82b366;endFill=0;" parent="1" source="ap_7rQkNiHjJm3ABQdG6-18" target="ap_7rQkNiHjJm3ABQdG6-21" edge="1">
          <mxGeometry width="50" height="50" relative="1" as="geometry">
            <mxPoint x="970" y="285" as="sourcePoint" />
            <mxPoint x="680" y="85" as="targetPoint" />
            <Array as="points">
              <mxPoint x="820" y="180" />
              <mxPoint x="870" y="130" />
              <mxPoint x="960" y="165" />
              <mxPoint x="1095" y="250" />
              <mxPoint x="1060" y="200" />
              <mxPoint x="970" y="245" />
              <mxPoint x="920" y="245" />
              <mxPoint x="970" y="155" />
            </Array>
          </mxGeometry>
        </mxCell>
        <mxCell id="ap_7rQkNiHjJm3ABQdG6-23" value="&lt;div&gt;Are there&lt;/div&gt;&lt;div&gt;trays still?&lt;/div&gt;" style="rhombus;whiteSpace=wrap;html=1;rounded=0;fillColor=#dae8fc;strokeColor=#6c8ebf;align=center;" parent="1" vertex="1">
          <mxGeometry x="325" y="380" width="90" height="90" as="geometry" />
        </mxCell>
        <mxCell id="ap_7rQkNiHjJm3ABQdG6-24" value="" style="endArrow=classic;html=1;fillColor=#f8cecc;strokeColor=#b85450;edgeStyle=elbowEdgeStyle;" parent="1" source="i8B-PwrzWvCDXHrhOCOJ-15" target="ap_7rQkNiHjJm3ABQdG6-23" edge="1">
          <mxGeometry width="50" height="50" relative="1" as="geometry">
            <mxPoint x="450" y="580" as="sourcePoint" />
            <mxPoint x="450" y="370" as="targetPoint" />
            <Array as="points">
              <mxPoint x="380" y="510" />
              <mxPoint x="365" y="490" />
            </Array>
          </mxGeometry>
        </mxCell>
        <mxCell id="ap_7rQkNiHjJm3ABQdG6-25" value="&lt;div&gt;Yes&lt;/div&gt;" style="text;html=1;align=center;verticalAlign=middle;resizable=0;points=[];autosize=1;fillColor=#d5e8d4;strokeColor=#82b366;" parent="1" vertex="1">
          <mxGeometry x="430" y="415" width="40" height="20" as="geometry" />
        </mxCell>
        <mxCell id="ap_7rQkNiHjJm3ABQdG6-26" value="" style="endArrow=none;html=1;elbow=vertical;fillColor=#d5e8d4;strokeColor=#82b366;endFill=0;" parent="1" source="ap_7rQkNiHjJm3ABQdG6-23" target="ap_7rQkNiHjJm3ABQdG6-25" edge="1">
          <mxGeometry width="50" height="50" relative="1" as="geometry">
            <mxPoint x="450" y="470" as="sourcePoint" />
            <mxPoint x="450" y="370" as="targetPoint" />
            <Array as="points" />
          </mxGeometry>
        </mxCell>
        <mxCell id="ap_7rQkNiHjJm3ABQdG6-27" value="" style="endArrow=classic;html=1;edgeStyle=elbowEdgeStyle;elbow=vertical;fillColor=#f8cecc;strokeColor=#b85450;" parent="1" source="ap_7rQkNiHjJm3ABQdG6-28" target="i8B-PwrzWvCDXHrhOCOJ-33" edge="1">
          <mxGeometry width="50" height="50" relative="1" as="geometry">
            <mxPoint x="610" y="410" as="sourcePoint" />
            <mxPoint x="660" y="360" as="targetPoint" />
            <Array as="points">
              <mxPoint x="280" y="420" />
            </Array>
          </mxGeometry>
        </mxCell>
        <mxCell id="ap_7rQkNiHjJm3ABQdG6-28" value="No" style="text;html=1;strokeColor=#b85450;fillColor=#f8cecc;align=center;verticalAlign=middle;whiteSpace=wrap;rounded=0;" parent="1" vertex="1">
          <mxGeometry x="260" y="415" width="40" height="20" as="geometry" />
        </mxCell>
        <mxCell id="ap_7rQkNiHjJm3ABQdG6-29" value="" style="endArrow=none;html=1;edgeStyle=elbowEdgeStyle;elbow=vertical;fillColor=#f8cecc;strokeColor=#b85450;endFill=0;" parent="1" source="ap_7rQkNiHjJm3ABQdG6-23" target="ap_7rQkNiHjJm3ABQdG6-28" edge="1">
          <mxGeometry width="50" height="50" relative="1" as="geometry">
            <mxPoint x="405" y="495" as="sourcePoint" />
            <mxPoint x="280" y="320" as="targetPoint" />
            <Array as="points">
              <mxPoint x="350" y="415" />
              <mxPoint x="370" y="495" />
            </Array>
          </mxGeometry>
        </mxCell>
        <UserObject label="%date{ddd mmm dd yyyy HH:MM:ss}%" placeholders="1" id="ap_7rQkNiHjJm3ABQdG6-30">
          <mxCell style="text;html=1;strokeColor=none;fillColor=none;align=center;verticalAlign=middle;whiteSpace=wrap;overflow=hidden;rounded=0;" parent="1" vertex="1">
            <mxGeometry x="470" y="20" width="160" height="20" as="geometry" />
          </mxCell>
        </UserObject>
        <mxCell id="ap_7rQkNiHjJm3ABQdG6-32" value="&lt;div&gt;Are there&lt;/div&gt;&lt;div&gt;virtually items attached?&lt;/div&gt;" style="rhombus;whiteSpace=wrap;html=1;rounded=0;fillColor=#dae8fc;strokeColor=#6c8ebf;align=center;" parent="1" vertex="1">
          <mxGeometry x="320" y="565" width="105" height="90" as="geometry" />
        </mxCell>
        <mxCell id="ap_7rQkNiHjJm3ABQdG6-33" value="" style="edgeStyle=elbowEdgeStyle;rounded=1;orthogonalLoop=1;jettySize=auto;html=1;endArrow=classic;endFill=1;startArrow=none;startFill=0;fillColor=#d5e8d4;strokeColor=#82b366;elbow=vertical;" parent="1" source="i8B-PwrzWvCDXHrhOCOJ-20" target="ap_7rQkNiHjJm3ABQdG6-32" edge="1">
          <mxGeometry relative="1" as="geometry">
            <mxPoint x="540" y="665" as="sourcePoint" />
            <mxPoint x="300" y="665" as="targetPoint" />
            <Array as="points">
              <mxPoint x="450" y="610" />
              <mxPoint x="450" y="665" />
            </Array>
          </mxGeometry>
        </mxCell>
        <mxCell id="ap_7rQkNiHjJm3ABQdG6-34" value="No" style="text;html=1;strokeColor=#b85450;fillColor=#f8cecc;align=center;verticalAlign=middle;whiteSpace=wrap;rounded=0;" parent="1" vertex="1">
          <mxGeometry x="350" y="525" width="40" height="20" as="geometry" />
        </mxCell>
        <mxCell id="ap_7rQkNiHjJm3ABQdG6-35" value="" style="edgeStyle=none;rounded=0;orthogonalLoop=1;jettySize=auto;html=1;endArrow=none;endFill=0;startArrow=none;startFill=0;fillColor=#f8cecc;strokeColor=#b85450;" parent="1" source="ap_7rQkNiHjJm3ABQdG6-32" target="ap_7rQkNiHjJm3ABQdG6-34" edge="1">
          <mxGeometry relative="1" as="geometry">
            <mxPoint x="390" y="665" as="sourcePoint" />
            <mxPoint x="300" y="665" as="targetPoint" />
          </mxGeometry>
        </mxCell>
        <mxCell id="ap_7rQkNiHjJm3ABQdG6-37" value="" style="endArrow=classic;html=1;fillColor=#d5e8d4;strokeColor=#82b366;edgeStyle=elbowEdgeStyle;elbow=vertical;" parent="1" source="ap_7rQkNiHjJm3ABQdG6-44" target="ap_7rQkNiHjJm3ABQdG6-41" edge="1">
          <mxGeometry width="50" height="50" relative="1" as="geometry">
            <mxPoint x="380" y="710" as="sourcePoint" />
            <mxPoint x="400" y="810" as="targetPoint" />
            <Array as="points">
              <mxPoint x="250" y="700" />
            </Array>
          </mxGeometry>
        </mxCell>
        <mxCell id="ap_7rQkNiHjJm3ABQdG6-38" value="&lt;div&gt;Yes&lt;/div&gt;" style="text;html=1;strokeColor=#82b366;fillColor=#d5e8d4;align=center;verticalAlign=middle;whiteSpace=wrap;rounded=0;" parent="1" vertex="1">
          <mxGeometry x="352.5" y="690" width="40" height="20" as="geometry" />
        </mxCell>
        <mxCell id="ap_7rQkNiHjJm3ABQdG6-39" value="" style="endArrow=none;html=1;endFill=0;fillColor=#d5e8d4;strokeColor=#82b366;" parent="1" source="ap_7rQkNiHjJm3ABQdG6-32" target="ap_7rQkNiHjJm3ABQdG6-38" edge="1">
          <mxGeometry width="50" height="50" relative="1" as="geometry">
            <mxPoint x="442.6547151277015" y="709.8673870333989" as="sourcePoint" />
            <mxPoint x="443" y="810" as="targetPoint" />
          </mxGeometry>
        </mxCell>
        <mxCell id="ap_7rQkNiHjJm3ABQdG6-40" value="" style="endArrow=classic;html=1;fillColor=#d5e8d4;strokeColor=#82b366;" parent="1" source="ap_7rQkNiHjJm3ABQdG6-46" target="ap_7rQkNiHjJm3ABQdG6-43" edge="1">
          <mxGeometry width="50" height="50" relative="1" as="geometry">
            <mxPoint x="380" y="750" as="sourcePoint" />
            <mxPoint x="480" y="810" as="targetPoint" />
          </mxGeometry>
        </mxCell>
        <mxCell id="ap_7rQkNiHjJm3ABQdG6-41" value="Press &quot;tote empty&quot;" style="whiteSpace=wrap;html=1;rounded=1;" parent="1" vertex="1">
          <mxGeometry x="190" y="595" width="120" height="60" as="geometry" />
        </mxCell>
        <mxCell id="ap_7rQkNiHjJm3ABQdG6-42" value="" style="endArrow=classic;html=1;edgeStyle=elbowEdgeStyle;elbow=vertical;" parent="1" source="ap_7rQkNiHjJm3ABQdG6-41" target="i8B-PwrzWvCDXHrhOCOJ-18" edge="1">
          <mxGeometry width="50" height="50" relative="1" as="geometry">
            <mxPoint x="290" y="770" as="sourcePoint" />
            <mxPoint x="340" y="720" as="targetPoint" />
            <Array as="points">
              <mxPoint x="260" y="625" />
              <mxPoint x="560" y="720" />
              <mxPoint x="330" y="752" />
            </Array>
          </mxGeometry>
        </mxCell>
        <mxCell id="ap_7rQkNiHjJm3ABQdG6-43" value="Take the &lt;span style=&quot;background-color: rgb(255 , 255 , 102)&quot;&gt;tote &lt;/span&gt;off the line, set it aside, and turn on your andon so that it can be taken to problem solve" style="whiteSpace=wrap;html=1;rounded=1;fillColor=#fff2cc;strokeColor=#d6b656;" parent="1" vertex="1">
          <mxGeometry x="175" y="720" width="150" height="80" as="geometry" />
        </mxCell>
        <mxCell id="ap_7rQkNiHjJm3ABQdG6-44" value="1-5 items" style="text;html=1;align=center;verticalAlign=middle;resizable=0;points=[];autosize=1;fillColor=#f5f5f5;strokeColor=#666666;fontColor=#333333;" parent="1" vertex="1">
          <mxGeometry x="260" y="690" width="70" height="20" as="geometry" />
        </mxCell>
        <mxCell id="ap_7rQkNiHjJm3ABQdG6-45" value="" style="endArrow=none;html=1;fillColor=#d5e8d4;strokeColor=#82b366;endFill=0;" parent="1" source="ap_7rQkNiHjJm3ABQdG6-38" target="ap_7rQkNiHjJm3ABQdG6-44" edge="1">
          <mxGeometry width="50" height="50" relative="1" as="geometry">
            <mxPoint x="433.6111111111111" y="760" as="sourcePoint" />
            <mxPoint x="389.16666666666674" y="810" as="targetPoint" />
          </mxGeometry>
        </mxCell>
        <mxCell id="ap_7rQkNiHjJm3ABQdG6-46" value="6+ items" style="text;html=1;align=center;verticalAlign=middle;resizable=0;points=[];autosize=1;fillColor=#f5f5f5;strokeColor=#666666;fontColor=#333333;" parent="1" vertex="1">
          <mxGeometry x="342.5" y="750" width="60" height="20" as="geometry" />
        </mxCell>
        <mxCell id="ap_7rQkNiHjJm3ABQdG6-47" value="" style="endArrow=none;html=1;fillColor=#d5e8d4;strokeColor=#82b366;endFill=0;" parent="1" source="ap_7rQkNiHjJm3ABQdG6-38" target="ap_7rQkNiHjJm3ABQdG6-46" edge="1">
          <mxGeometry width="50" height="50" relative="1" as="geometry">
            <mxPoint x="451.3888888888889" y="760" as="sourcePoint" />
            <mxPoint x="495.83333333333326" y="810" as="targetPoint" />
          </mxGeometry>
        </mxCell>
        <mxCell id="i8B-PwrzWvCDXHrhOCOJ-27" value="&lt;div&gt;&lt;font face=&quot;Verdana&quot;&gt;Is the light&lt;/font&gt;&lt;/div&gt;&lt;div&gt;&lt;font face=&quot;Verdana&quot;&gt;wall blocked?&lt;/font&gt;&lt;/div&gt;" style="rhombus;whiteSpace=wrap;html=1;rounded=0;fillColor=#dae8fc;strokeColor=#6c8ebf;" parent="1" vertex="1">
          <mxGeometry x="905" y="339.99999999999994" width="110" height="78.57" as="geometry" />
        </mxCell>
        <mxCell id="BKchy7q1Tg_gFpRPUmwn-6" value="" style="group" vertex="1" connectable="0" parent="1">
          <mxGeometry x="685" y="478" width="90" height="40" as="geometry" />
        </mxCell>
        <mxCell id="i8B-PwrzWvCDXHrhOCOJ-24" value="&lt;div&gt;&lt;font face=&quot;Verdana&quot;&gt;The &lt;span style=&quot;background-color: rgb(204 , 204 , 204)&quot;&gt;tray&lt;br&gt;&lt;/span&gt;&lt;/font&gt;&lt;/div&gt;&lt;div&gt;&lt;font face=&quot;Verdana&quot;&gt;&lt;span style=&quot;background-color: rgb(204 , 204 , 204)&quot;&gt;&lt;/span&gt;didn&#39;t move.&lt;/font&gt;&lt;/div&gt;" style="rounded=1;whiteSpace=wrap;html=1;fillColor=#f8cecc;strokeColor=#b85450;" parent="BKchy7q1Tg_gFpRPUmwn-6" vertex="1">
          <mxGeometry x="6.923076923076923" y="5.7142857142857135" width="83.07692307692308" height="34.28571428571428" as="geometry" />
        </mxCell>
        <mxCell id="BKchy7q1Tg_gFpRPUmwn-4" value="" style="group" vertex="1" connectable="0" parent="BKchy7q1Tg_gFpRPUmwn-6">
          <mxGeometry width="90" height="40" as="geometry" />
        </mxCell>
        <mxCell id="6deW7tsNIbcMf1ReAwM--2" value="" style="shape=switch;whiteSpace=wrap;html=1;strokeColor=#b85450;" parent="BKchy7q1Tg_gFpRPUmwn-4" vertex="1">
          <mxGeometry width="20.76923076923077" height="17.14285714285714" as="geometry" />
        </mxCell>
        <mxCell id="BKchy7q1Tg_gFpRPUmwn-9" value="" style="edgeStyle=orthogonalEdgeStyle;rounded=1;orthogonalLoop=1;jettySize=auto;html=1;endArrow=classic;endFill=1;fillColor=#f8cecc;strokeColor=#b85450;" edge="1" parent="1" source="BKchy7q1Tg_gFpRPUmwn-10" target="i8B-PwrzWvCDXHrhOCOJ-27">
          <mxGeometry relative="1" as="geometry">
            <mxPoint x="875" y="450" as="sourcePoint" />
            <Array as="points" />
          </mxGeometry>
        </mxCell>
        <mxCell id="BKchy7q1Tg_gFpRPUmwn-7" value="Is the jam alarm going off?" style="rhombus;whiteSpace=wrap;html=1;rounded=0;fillColor=#dae8fc;strokeColor=#6c8ebf;" vertex="1" parent="1">
          <mxGeometry x="810" y="269.9999999999999" width="90" height="80" as="geometry" />
        </mxCell>
        <mxCell id="BKchy7q1Tg_gFpRPUmwn-10" value="&lt;div&gt;No&lt;/div&gt;" style="text;html=1;align=center;verticalAlign=middle;resizable=0;points=[];autosize=1;fillColor=#f8cecc;strokeColor=#b85450;" vertex="1" parent="1">
          <mxGeometry x="840" y="370" width="30" height="20" as="geometry" />
        </mxCell>
        <mxCell id="BKchy7q1Tg_gFpRPUmwn-22" value="" style="edgeStyle=orthogonalEdgeStyle;rounded=1;orthogonalLoop=1;jettySize=auto;html=1;endArrow=none;endFill=0;" edge="1" parent="1" source="BKchy7q1Tg_gFpRPUmwn-13" target="i8B-PwrzWvCDXHrhOCOJ-8">
          <mxGeometry relative="1" as="geometry" />
        </mxCell>
        <mxCell id="BKchy7q1Tg_gFpRPUmwn-13" value="Make sure the tray is empty and THEN hit the clear jam button" style="rounded=1;whiteSpace=wrap;html=1;" vertex="1" parent="1">
          <mxGeometry x="685" y="210" width="120" height="60" as="geometry" />
        </mxCell>
        <mxCell id="BKchy7q1Tg_gFpRPUmwn-14" value="" style="endArrow=classic;html=1;fillColor=#d5e8d4;strokeColor=#82b366;" edge="1" parent="1" source="BKchy7q1Tg_gFpRPUmwn-20" target="BKchy7q1Tg_gFpRPUmwn-13">
          <mxGeometry width="50" height="50" relative="1" as="geometry">
            <mxPoint x="855" y="670" as="sourcePoint" />
            <mxPoint x="905" y="620" as="targetPoint" />
          </mxGeometry>
        </mxCell>
        <mxCell id="BKchy7q1Tg_gFpRPUmwn-20" value="&lt;div&gt;Yes&lt;/div&gt;" style="text;html=1;align=center;verticalAlign=middle;resizable=0;points=[];autosize=1;fillColor=#d5e8d4;strokeColor=#82b366;" vertex="1" parent="1">
          <mxGeometry x="835" y="230" width="40" height="20" as="geometry" />
        </mxCell>
        <mxCell id="BKchy7q1Tg_gFpRPUmwn-25" value="" style="endArrow=classic;html=1;fillColor=#f8cecc;strokeColor=#b85450;edgeStyle=elbowEdgeStyle;" edge="1" parent="1" source="i8B-PwrzWvCDXHrhOCOJ-10" target="i8B-PwrzWvCDXHrhOCOJ-24">
          <mxGeometry width="50" height="50" relative="1" as="geometry">
            <mxPoint x="605" y="460" as="sourcePoint" />
            <mxPoint x="655" y="410" as="targetPoint" />
            <Array as="points">
              <mxPoint x="600" y="470" />
            </Array>
          </mxGeometry>
        </mxCell>
        <mxCell id="BKchy7q1Tg_gFpRPUmwn-34" value="" style="endArrow=none;html=1;fillColor=#f8cecc;strokeColor=#b85450;" edge="1" parent="1" source="BKchy7q1Tg_gFpRPUmwn-10" target="BKchy7q1Tg_gFpRPUmwn-7">
          <mxGeometry width="50" height="50" relative="1" as="geometry">
            <mxPoint x="820" y="420" as="sourcePoint" />
            <mxPoint x="870" y="370" as="targetPoint" />
          </mxGeometry>
        </mxCell>
        <mxCell id="BKchy7q1Tg_gFpRPUmwn-35" value="" style="edgeStyle=elbowEdgeStyle;rounded=1;orthogonalLoop=1;jettySize=auto;html=1;endArrow=classic;endFill=1;" edge="1" parent="1" source="i8B-PwrzWvCDXHrhOCOJ-24" target="BKchy7q1Tg_gFpRPUmwn-7">
          <mxGeometry relative="1" as="geometry" />
        </mxCell>
        <mxCell id="BKchy7q1Tg_gFpRPUmwn-37" value="" style="endArrow=classic;html=1;edgeStyle=elbowEdgeStyle;elbow=vertical;" edge="1" parent="1" source="i8B-PwrzWvCDXHrhOCOJ-10" target="i8B-PwrzWvCDXHrhOCOJ-13">
          <mxGeometry width="50" height="50" relative="1" as="geometry">
            <mxPoint x="560" y="630" as="sourcePoint" />
            <mxPoint x="610" y="580" as="targetPoint" />
            <Array as="points">
              <mxPoint x="530" y="500" />
            </Array>
          </mxGeometry>
        </mxCell>
      </root>
    </mxGraphModel>
  </diagram>
</mxfile>
